<svg xmlns="http://www.w3.org/2000/svg" width="903" height="73" fill="none"><path d="M75.045 15.824L50.03 9.994a2651.054 2651.054 0 00-12.508 37.581A4928.46 4928.46 0 0125.016 4.581 1045.872 1045.872 0 000 .312v72.56c5.162.416 10.324-.416 15.486 0v-51.74c.198.07.397.105.595.105 4.566 14.713 6.154 37.269 10.72 51.635 5.162.416 14.692-.416 19.854 0 4.566-12.909 7.743-32.307 12.309-44.66.199 0 .397.035.596.104v44.556c5.161.416 11.712-.347 16.874 0 0-17.975-1.389-39.975-1.389-57.048zm45.762 57.048c5.559.07 11.118-.07 16.676 0V25.297a336.002 336.002 0 01-16.676-1.041v16.656a655.66 655.66 0 01-23.228-2.082V20.717a714.07 714.07 0 01-16.677-3.54v55.695c5.559.347 11.118-.347 16.677 0V49.345a2621.61 2621.61 0 0023.228 1.561v21.966zm22.136-26.546c0 14.054 10.125 26.13 30.971 25.505 25.611-1.353 29.184-20.82 29.184-20.82-5.559.555-11.118 1.075-16.676 1.56 0 0-1.787 8.121-11.912 8.746-10.026.416-14.096-5.206-14.791-12.701 14.625-.972 29.217-2.22 43.776-3.748 0 0 .199-1.873.199-3.019 0-15.095-9.43-24.464-29.78-20.404-20.449 2.395-30.971 11.972-30.971 24.88zm6.552-28.628c0 2.602 4.268 4.788 9.529 4.268 5.162-.52 9.53-3.852 9.53-6.767 0-2.81-4.368-3.956-9.53-3.019-5.261.833-9.529 3.019-9.529 5.518zm28.588-4.581c0 3.227 4.269 5.205 9.53 4.06 5.162-1.25 9.529-5.518 9.529-9.265 0-3.748-4.367-5.101-9.529-3.331-5.261 1.77-9.53 5.517-9.53 8.536zm-4.169 16.76c8.14-1.04 11.515 2.499 12.607 8.225a684.94 684.94 0 01-26.306 2.394c1.39-5.517 5.46-9.682 13.699-10.619zM284 0a1045.946 1045.946 0 00-25.015 4.268 4890.22 4890.22 0 01-12.508 42.995 3460.16 3460.16 0 00-12.507-37.79l-25.015 5.83v57.569c5.162-.347 10.324.416 15.485 0V27.9c.199 0 .397-.035.596-.104 4.566 12.422 10.621 32.028 15.187 45.076 5.162-.416 9.728.416 14.89 0 4.566-14.436 8.24-37.165 12.806-51.947.198 0 .397-.035.596-.104v52.051c5.161-.416 10.323.416 15.485 0V0zm104.373 1.985H370.08V37.72c0 13.897-5.227 19.853-15.027 19.853-8.493 0-11.76-5.294-11.76-17.206V1.986H325v42.35c0 15.883 5.227 28.456 24.173 28.456 15.027 0 20.907-13.235 20.907-13.235h.653v11.25h17.64V1.985zm82.797 68.822h18.293V35.072c0-13.896 4.181-19.852 12.021-19.852 7.187 0 9.539 5.294 9.539 17.205v38.382h18.293V28.455c0-15.882-4.573-28.455-21.56-28.455-13.72 0-19.6 13.235-19.6 13.235h-.653l-.131.132C484.759 5.294 478.879 0 467.903 0c-13.72 0-18.293 13.235-18.293 13.235h-.653V1.985h-17.64v68.822h18.293V35.072c0-13.896 4.181-19.852 12.021-19.852 7.187 0 9.539 5.294 9.539 17.205v38.382zM672.805 1.985H565.224c-18.947 0-29.4 8.603-29.4 21.838 0 8.338 4.051 14.823 11.89 18.529l-13.85 28.455h20.514l10.846-25.147h89.288v25.147h18.293V1.985zm-104.968 30.44c-9.8 0-13.72-2.646-13.72-8.602s3.92-8.603 13.72-8.603h86.675v17.205h-86.675zm155.228 38.382h18.294V1.985h-18.294v27.132h-25.479V1.985h-18.294v68.822h18.294V43.675h25.479v27.132zm24.225-34.411c0 20.117 11.106 36.396 33.973 36.396 28.093 0 32.013-24.485 32.013-24.485h-18.293s-1.96 10.588-13.067 10.588c-10.976 0-15.419-7.94-16.203-18.529h48.085s.131-2.382.131-3.97C813.929 16.279 803.606 0 781.263 0c-22.344 0-33.973 16.279-33.973 36.396zm33.973-22.5c9.016 0 12.674 6.089 13.85 14.559h-28.877c1.568-8.47 6.011-14.558 15.027-14.558zm120.84-11.911h-27.44l-13.72 47.646-13.72-47.646h-27.44v68.822h16.987V22.499h.653l15.027 48.308h16.986l15.027-48.308h.653v48.308h16.987V1.985z" fill="#fff"/></svg>