<?xml version="1.0" encoding="UTF-8"?> <svg xmlns="http://www.w3.org/2000/svg" width="903" height="73" viewBox="0 0 903 73" fill="none"> <path d="M75.0451 15.8236C66.7067 13.8804 58.3684 11.9371 50.0301 9.99387C45.8609 22.2086 41.6917 34.7357 37.5225 47.575C33.3534 33.4864 29.1842 19.1549 25.015 4.58052C16.6767 3.05368 8.33834 1.63094 0 0.312308C0 21.1329 0 52.2596 0 72.872C5.16183 73.2884 10.3237 72.4556 15.4855 72.872C15.4855 58.714 15.4855 35.3603 15.4855 21.1329C15.684 21.2023 15.8826 21.237 16.0811 21.237C20.6473 35.9502 22.2351 58.5058 26.8013 72.872C31.9632 73.2884 41.4927 72.4556 46.6545 72.872C51.2208 59.9633 54.3978 40.5654 58.964 28.2119C59.1625 28.2119 59.3611 28.2466 59.5596 28.316C59.5596 41.1553 59.5596 59.7551 59.5596 72.872C64.7214 73.2884 71.2725 72.525 76.4343 72.872C76.4343 54.8969 75.0451 32.8965 75.0451 15.8236Z" fill="white"></path> <path d="M120.807 72.872C126.366 72.9414 131.925 72.8026 137.483 72.872C137.483 56.4238 137.483 39.3162 137.483 25.297C131.925 25.0888 126.366 24.7418 120.807 24.256C120.807 29.5999 120.807 35.1521 120.807 40.9124C113.064 40.3572 105.321 39.6632 97.5785 38.8304C97.5785 32.6536 97.5785 26.6156 97.5785 20.7165C92.0196 19.606 86.4607 18.4262 80.9018 17.177C80.9018 33.8334 80.9018 55.1051 80.9018 72.872C86.4607 73.219 92.0196 72.525 97.5785 72.872C97.5785 65.9318 97.5785 56.0767 97.5785 49.3448C105.321 49.9 113.064 50.4205 120.807 50.9063C120.807 57.4301 120.807 66.14 120.807 72.872Z" fill="white"></path> <path d="M142.943 46.3258C142.943 60.3797 153.068 72.4556 173.914 71.831C199.525 70.4776 203.098 51.0104 203.098 51.0104C197.539 51.5656 191.98 52.0861 186.422 52.5719C186.422 52.5719 184.635 60.692 174.51 61.3166C164.484 61.733 160.414 56.1115 159.719 48.616C174.344 47.6444 188.936 46.3952 203.495 44.8683C203.495 44.8683 203.694 42.9945 203.694 41.8494C203.694 26.7544 194.264 17.3852 173.914 21.4452C153.465 23.8396 142.943 33.417 142.943 46.3258ZM149.495 17.6975C149.495 20.3001 153.763 22.4862 159.024 21.9657C164.186 21.4452 168.554 18.1139 168.554 15.199C168.554 12.3882 164.186 11.2431 159.024 12.18C153.763 13.0129 149.495 15.199 149.495 17.6975ZM178.083 13.117C178.083 16.3441 182.352 18.3221 187.613 17.177C192.775 15.9277 197.142 11.6595 197.142 7.91182C197.142 4.16411 192.775 2.81077 187.613 4.58052C182.352 6.35027 178.083 10.098 178.083 13.117ZM173.914 29.8775C182.054 28.8365 185.429 32.376 186.521 38.1017C177.719 39.0733 168.951 39.8714 160.215 40.496C161.605 34.9786 165.675 30.8145 173.914 29.8775Z" fill="white"></path> <path d="M284 0C275.662 1.31864 267.323 2.74138 258.985 4.26822C254.816 18.8426 250.647 33.1741 246.477 47.2627C242.308 34.4234 238.139 21.8269 233.97 9.47336C225.632 11.4166 217.293 13.3599 208.955 15.3031C208.955 32.5148 208.955 54.7581 208.955 72.872C214.117 72.525 219.279 73.2884 224.44 72.872C224.44 59.6857 224.44 40.8777 224.44 27.8996C224.639 27.8996 224.837 27.8649 225.036 27.7955C229.602 40.2184 235.657 59.8245 240.223 72.872C245.385 72.4556 249.951 73.2884 255.113 72.872C259.679 58.4364 263.353 35.7073 267.919 20.9247C268.117 20.9247 268.316 20.89 268.515 20.8206C268.515 35.1174 268.515 58.714 268.515 72.872C273.676 72.4556 278.838 73.2884 284 72.872C284 52.2596 284 20.89 284 0Z" fill="white"></path> <path d="M388.373 1.98523H370.08V37.7194C370.08 51.616 364.853 57.5717 355.053 57.5717C346.56 57.5717 343.293 52.2777 343.293 40.3664V1.98523H325V44.3368C325 60.2187 330.227 72.7918 349.173 72.7918C364.2 72.7918 370.08 59.5569 370.08 59.5569H370.733V70.8066H388.373V1.98523Z" fill="white"></path> <path d="M471.17 70.8066H489.463V35.0724C489.463 21.1758 493.644 15.2201 501.484 15.2201C508.671 15.2201 511.023 20.5141 511.023 32.4254V70.8066H529.316V28.455C529.316 12.5731 524.743 0 507.756 0C494.036 0 488.156 13.2349 488.156 13.2349H487.503L487.372 13.3672C484.759 5.29395 478.879 0 467.903 0C454.183 0 449.61 13.2349 449.61 13.2349H448.957V1.98523H431.317V70.8066H449.61V35.0724C449.61 21.1758 453.791 15.2201 461.631 15.2201C468.818 15.2201 471.17 20.5141 471.17 32.4254V70.8066Z" fill="white"></path> <path d="M672.805 1.98523H565.224C546.277 1.98523 535.824 10.5879 535.824 23.8228C535.824 32.1607 539.875 38.6458 547.714 42.3516L533.864 70.8066H554.378L565.224 45.6603H654.512V70.8066H672.805V1.98523ZM567.837 32.4254C558.037 32.4254 554.117 29.7785 554.117 23.8228C554.117 17.8671 558.037 15.2201 567.837 15.2201H654.512V32.4254H567.837Z" fill="white"></path> <path d="M723.065 70.8066H741.359V1.98523H723.065V29.1167H697.586V1.98523H679.292V70.8066H697.586V43.6751H723.065V70.8066Z" fill="white"></path> <path d="M747.29 36.3959C747.29 56.5129 758.396 72.7918 781.263 72.7918C809.356 72.7918 813.276 48.3073 813.276 48.3073H794.983C794.983 48.3073 793.023 58.8952 781.916 58.8952C770.94 58.8952 766.497 50.9543 765.713 40.3664H813.798C813.798 40.3664 813.929 37.9841 813.929 36.3959C813.929 16.2789 803.606 0 781.263 0C758.919 0 747.29 16.2789 747.29 36.3959ZM781.263 13.8966C790.279 13.8966 793.937 19.9847 795.113 28.455H766.236C767.804 19.9847 772.247 13.8966 781.263 13.8966Z" fill="white"></path> <path d="M902.103 1.98523H874.663L860.943 49.6308L847.223 1.98523H819.783V70.8066H836.77V22.4993H837.423L852.45 70.8066H869.436L884.463 22.4993H885.116V70.8066H902.103V1.98523Z" fill="white"></path> </svg> 